<svg xmlns="http://www.w3.org/2000/svg" viewBox="0 0 96 96" width="96" height="96">
  <rect width="96" height="96" rx="20" fill="#E11D48"/>
  <path d="M68 34.5C64.2 29.2 58 26 50.5 26C36.9 26 26 36.9 26 50.5C26 64.1 36.9 75 50.5 75C58.2 75 64.5 71.6 68.3 66.1C69.1 64.9 68.3 63.3 66.8 63.3H61.2C60.3 63.3 59.5 63.8 59 64.5C56.9 67.5 53.9 69.2 50.5 69.2C40.1 69.2 31.8 60.9 31.8 50.5C31.8 40.1 40.1 31.8 50.5 31.8C54 31.8 57.1 33.6 59.2 36.7C59.7 37.4 60.5 37.8 61.4 37.8H66.9C68.4 37.8 69.2 36.1 68 34.5Z" fill="#FFFFFF"/>
</svg>
